# xmcd
#
# Track frame offsets:
# 150
# 18467
# 39122
# 57041
# 76642
# 97875
# 118148
# 138843
# 157381
# 176014
# 196134
# 216201
# 238349
# 259721
# 278835
# 298286
# 315803
# 336063
#
# Disc length: 4741 seconds
#
#
# Revision: 0
# Processed by: cddbd v1.5.2PL0 Copyright (c) Steve Scherf et al.
# Submitted via: FreeRIP 2.30 
#
DISCID=f9128312
DTITLE=Freddie Jackson - Freddie Jackson Greatest Hits
DYEAR=2007
DGENRE=R&B
TTITLE0=Rock Me Tonight (For Old Times Sake)
TTITLE1=Have You Ever Loved Somebody
TTITLE2=I Do (Natalie Cole with Freddie Jackson)
TTITLE3=Nice 'N' Slow
TTITLE4=You Are My Lady
TTITLE5=Jam Tonignt
TTITLE6=I Could Use A Little Love (Right Now)
TTITLE7=Main Course
TTITLE8=He'll Never Love You (Like I Do)
TTITLE9=Love Me Down
TTITLE10=Hey Lover
TTITLE11=A Little Bit More (with Melba Moore)
TTITLE12=You And I Got A Thang
TTITLE13=Do Me Again
TTITLE14=Love Is Just A Touch Away
TTITLE15=I Don't Want To Lose Your Love
TTITLE16=All Over You
TTITLE17=Tasty Love
EXTD=
EXTT0=
EXTT1=
EXTT2=
EXTT3=
EXTT4=
EXTT5=
EXTT6=
EXTT7=
EXTT8=
EXTT9=
EXTT10=
EXTT11=
EXTT12=
EXTT13=
EXTT14=
EXTT15=
EXTT16=
EXTT17=
PLAYORDER=
